<?xml version="1.0" standalone="no"?>
<!DOCTYPE svg PUBLIC "-//W3C//DTD SVG 20010904//EN"
 "http://www.w3.org/TR/2001/REC-SVG-20010904/DTD/svg10.dtd">
<svg version="1.0" xmlns="http://www.w3.org/2000/svg"
 width="1600.000000pt" height="1600.000000pt" viewBox="0 0 1600.000000 1600.000000"
 preserveAspectRatio="xMidYMid meet">
<metadata>
Created by potrace 1.14, written by Peter Selinger 2001-2017
</metadata>
<g transform="translate(0.000000,1600.000000) scale(0.100000,-0.100000)"
fill="#000000" stroke="none">
<path d="M7877 15504 c-3 -3 -81 -8 -174 -11 -205 -6 -214 -6 -232 -17 -10 -7
-12 -5 -6 3 6 10 3 11 -13 2 -14 -7 -23 -8 -27 -1 -4 6 -11 7 -17 4 -6 -4 -27
-8 -47 -10 -46 -4 -119 -11 -201 -20 -36 -3 -81 -8 -100 -9 -19 -2 -35 -4 -35
-5 0 -3 -29 -7 -94 -14 -36 -4 -67 -9 -70 -10 -3 -2 -28 -7 -56 -10 -63 -7
-150 -22 -150 -26 0 -1 -13 -3 -30 -5 -27 -4 -73 -12 -115 -22 -8 -1 -26 -5
-40 -7 -14 -3 -38 -8 -55 -12 -16 -3 -38 -6 -47 -6 -10 0 -20 -3 -23 -9 -4 -5
-16 -9 -29 -9 -12 0 -27 -5 -34 -12 -8 -8 -12 -9 -12 -1 0 7 -18 5 -50 -7 -30
-11 -47 -14 -43 -7 4 7 -1 6 -10 -2 -9 -7 -17 -10 -17 -6 0 4 -6 3 -13 -3 -7
-6 -32 -14 -55 -18 -23 -4 -42 -11 -42 -16 0 -5 -4 -6 -10 -3 -5 3 -42 -4 -82
-17 -40 -12 -82 -22 -93 -23 -11 0 -26 -6 -33 -12 -7 -7 -24 -13 -37 -13 -13
0 -27 -5 -30 -10 -4 -6 -10 -8 -15 -5 -5 3 -11 1 -15 -4 -3 -6 -12 -8 -19 -5
-7 3 -20 -1 -27 -8 -8 -7 -18 -13 -24 -13 -20 -1 -80 -17 -90 -25 -5 -4 -25
-11 -43 -15 -21 -4 -30 -11 -25 -18 4 -7 -1 -6 -10 2 -10 8 -17 9 -17 3 0 -10
-76 -38 -92 -34 -5 1 -8 -3 -8 -9 0 -6 -7 -9 -15 -5 -8 3 -15 1 -15 -5 0 -6
-7 -9 -15 -5 -8 3 -15 2 -15 -3 0 -9 -48 -26 -62 -23 -5 1 -8 -2 -8 -8 0 -6
-3 -9 -7 -8 -9 2 -60 -18 -87 -33 -14 -8 -16 -8 -10 3 4 7 -2 5 -13 -5 -11 -9
-23 -14 -26 -10 -4 3 -7 1 -7 -5 0 -7 -6 -12 -13 -12 -13 0 -81 -29 -120 -51
-10 -5 -21 -8 -26 -5 -4 3 -13 -4 -21 -14 -8 -10 -17 -17 -21 -14 -5 3 -16 0
-26 -5 -10 -5 -40 -20 -68 -33 -27 -13 -52 -26 -53 -31 -2 -4 -8 -5 -13 -1 -5
3 -9 0 -9 -7 0 -7 -3 -10 -6 -6 -7 7 -105 -42 -116 -57 -4 -6 -8 -7 -8 -3 0
11 -43 -13 -53 -30 -5 -7 -12 -11 -18 -8 -5 4 -22 -3 -38 -14 -15 -11 -30 -18
-33 -15 -3 2 -11 -2 -18 -11 -7 -8 -17 -15 -22 -15 -6 0 -22 -9 -38 -20 -15
-11 -30 -17 -34 -13 -3 3 -6 1 -6 -6 0 -7 -4 -9 -10 -6 -5 3 -10 2 -10 -3 0
-9 -50 -37 -62 -34 -5 1 -8 -3 -8 -8 0 -6 -7 -10 -15 -10 -8 0 -15 -3 -15 -7
0 -5 -10 -13 -23 -19 -61 -30 -107 -59 -107 -66 0 -5 -4 -6 -10 -3 -5 3 -10 2
-10 -3 0 -5 -8 -12 -17 -15 -10 -4 -36 -18 -58 -32 -22 -13 -47 -28 -55 -32
-8 -4 -24 -16 -35 -27 -11 -12 -27 -22 -35 -24 -8 -2 -17 -8 -18 -13 -2 -5 -8
-9 -14 -9 -5 0 -16 -6 -23 -12 -34 -31 -43 -36 -49 -31 -3 4 -6 2 -6 -4 0 -5
-16 -18 -35 -29 -19 -10 -35 -22 -35 -26 0 -5 -7 -8 -15 -8 -9 0 -18 -7 -21
-15 -4 -8 -11 -15 -16 -15 -5 0 -30 -16 -54 -36 -24 -20 -44 -34 -44 -30 0 3
-8 -2 -18 -11 -34 -33 -72 -63 -72 -57 0 2 -11 -5 -25 -18 -38 -37 -55 -49
-55 -43 0 4 -12 -7 -27 -23 -16 -16 -36 -32 -46 -35 -10 -4 -15 -11 -12 -17 3
-5 0 -10 -9 -10 -8 0 -36 -20 -63 -45 -26 -25 -53 -45 -60 -45 -6 0 -15 -9
-18 -20 -3 -11 -13 -20 -21 -20 -8 0 -17 -7 -20 -15 -3 -8 -14 -17 -25 -20
-10 -4 -19 -13 -19 -21 0 -8 -4 -13 -9 -10 -4 3 -19 -8 -31 -24 -13 -17 -25
-28 -27 -26 -2 2 -30 -21 -61 -52 -31 -31 -60 -55 -64 -54 -5 1 -8 -6 -8 -15
0 -9 -2 -14 -6 -11 -7 7 -94 -78 -94 -93 0 -5 -4 -7 -10 -4 -5 3 -10 -1 -10
-9 0 -9 -3 -15 -8 -13 -4 1 -40 -32 -80 -73 -41 -41 -78 -74 -84 -72 -5 1 -7
-2 -4 -7 4 -5 -18 -35 -49 -65 -30 -31 -53 -56 -50 -56 2 0 -20 -25 -50 -55
-30 -30 -55 -58 -55 -63 0 -4 -12 -18 -25 -31 -14 -13 -25 -27 -25 -32 0 -5
-7 -9 -17 -9 -9 0 -14 -3 -10 -6 6 -6 -13 -32 -56 -76 -15 -15 -25 -28 -22
-28 3 0 -6 -12 -20 -27 -14 -16 -32 -35 -40 -44 -8 -9 -15 -19 -15 -22 0 -4
-13 -21 -30 -38 -16 -18 -28 -34 -26 -38 4 -9 -31 -40 -38 -33 -3 3 -6 -2 -6
-11 0 -15 -20 -43 -56 -81 -6 -6 -10 -13 -10 -16 1 -6 -14 -25 -46 -61 -10
-10 -18 -22 -17 -25 1 -3 -8 -16 -19 -29 -11 -13 -18 -26 -15 -29 4 -3 1 -6
-6 -6 -7 0 -9 -4 -6 -10 3 -5 2 -10 -3 -10 -10 0 -82 -104 -82 -119 0 -5 -7
-12 -16 -15 -9 -4 -14 -9 -11 -12 3 -4 1 -11 -4 -18 -41 -48 -49 -61 -49 -73
0 -7 -4 -13 -9 -13 -10 0 -27 -39 -23 -53 1 -5 -1 -6 -6 -3 -5 3 -19 -15 -31
-39 -12 -25 -27 -45 -33 -45 -6 0 -9 -3 -5 -6 3 -4 -5 -23 -18 -43 -14 -19
-25 -39 -25 -44 0 -5 -6 -15 -12 -22 -30 -33 -34 -41 -30 -54 3 -9 0 -11 -8
-6 -10 6 -12 4 -7 -8 3 -10 2 -17 -3 -17 -6 0 -10 -7 -10 -15 0 -8 -4 -15 -10
-15 -5 0 -10 -6 -10 -14 0 -8 -12 -29 -27 -47 -16 -18 -21 -29 -13 -24 13 8
13 7 1 -8 -7 -9 -10 -17 -7 -17 4 0 -3 -10 -14 -22 -12 -13 -24 -35 -27 -50
-3 -15 -12 -33 -19 -39 -8 -6 -14 -17 -14 -25 0 -7 -7 -20 -16 -28 -8 -9 -12
-16 -8 -16 3 0 1 -7 -6 -15 -7 -8 -9 -15 -4 -15 5 0 4 -4 -3 -8 -6 -4 -13 -14
-15 -22 -2 -8 -9 -21 -16 -28 -7 -8 -10 -18 -7 -23 4 -5 1 -9 -5 -9 -7 0 -10
-6 -7 -14 3 -8 0 -17 -8 -19 -7 -3 -16 -19 -20 -36 -4 -17 -11 -31 -17 -31 -6
0 -8 -3 -5 -7 4 -3 2 -12 -4 -20 -6 -7 -8 -13 -4 -13 5 0 0 -9 -11 -21 -10
-12 -18 -24 -18 -28 1 -3 -2 -16 -7 -29 -5 -13 -9 -27 -9 -32 0 -4 -7 -11 -16
-14 -8 -3 -13 -10 -10 -15 3 -5 -7 -39 -24 -75 -16 -36 -27 -66 -24 -66 2 0
-3 -11 -12 -25 -9 -14 -13 -25 -8 -25 4 0 3 -5 -4 -12 -7 -7 -12 -20 -12 -30
0 -10 -5 -18 -10 -18 -6 0 -10 -6 -8 -12 1 -7 -3 -23 -10 -35 -6 -12 -13 -30
-15 -40 -1 -10 -5 -22 -8 -28 -6 -9 -32 -83 -34 -95 -4 -21 -18 -50 -24 -50
-3 0 -7 -8 -8 -17 -1 -23 -8 -51 -22 -85 -6 -16 -8 -28 -5 -28 3 0 -2 -10 -10
-21 -8 -12 -12 -28 -9 -35 3 -8 0 -14 -7 -14 -7 0 -10 -7 -7 -15 4 -8 2 -17
-4 -20 -5 -4 -7 -10 -4 -15 3 -5 1 -11 -5 -15 -6 -4 -8 -10 -5 -15 3 -5 1 -11
-5 -15 -6 -4 -8 -11 -5 -16 4 -5 3 -15 -2 -21 -9 -15 -14 -34 -16 -63 -1 -11
-5 -23 -10 -26 -4 -3 -9 -14 -11 -25 -2 -10 -11 -46 -20 -80 -8 -33 -17 -69
-19 -80 -2 -10 -7 -26 -10 -34 -3 -8 -8 -28 -11 -45 -4 -16 -8 -39 -11 -50
-12 -49 -17 -71 -20 -90 -2 -11 -7 -31 -10 -45 -3 -14 -9 -38 -12 -55 -8 -47
-11 -60 -13 -60 -1 0 -3 -11 -5 -25 -1 -14 -6 -38 -9 -55 -4 -16 -9 -41 -11
-55 -3 -22 -10 -67 -20 -125 -2 -11 -6 -36 -10 -55 -4 -19 -8 -52 -8 -72 -1
-21 -4 -38 -8 -38 -3 0 -5 -10 -4 -22 1 -13 -2 -38 -6 -55 -5 -22 -3 -33 5
-33 8 0 8 -2 -1 -8 -6 -4 -14 -34 -17 -67 -3 -33 -9 -85 -12 -115 -3 -30 -8
-82 -9 -115 -2 -33 -4 -60 -5 -60 -3 0 -12 -195 -14 -295 0 -58 -5 -108 -11
-112 -7 -5 -7 -8 0 -8 6 0 9 -21 7 -47 -3 -57 -2 -148 3 -298 1 -60 4 -145 5
-188 2 -43 7 -80 12 -83 5 -3 4 -11 -2 -19 -8 -9 -8 -15 0 -20 7 -4 7 -12 0
-24 -5 -10 -7 -21 -4 -23 5 -6 9 -35 19 -148 4 -36 8 -78 10 -95 2 -16 5 -46
6 -65 1 -19 7 -43 12 -54 7 -13 6 -16 -3 -11 -9 6 -9 3 -1 -12 5 -11 10 -28 9
-39 0 -10 2 -38 6 -61 6 -39 10 -60 21 -133 2 -14 7 -38 10 -55 4 -16 8 -43
10 -60 2 -16 7 -43 11 -60 3 -16 7 -39 9 -50 1 -11 3 -20 5 -20 1 0 3 -11 5
-25 8 -68 28 -146 38 -152 9 -6 8 -8 -1 -8 -8 0 -10 -5 -5 -12 9 -15 15 -44
17 -75 1 -13 5 -23 10 -23 4 0 6 -6 3 -14 -3 -8 -3 -17 1 -20 3 -4 7 -12 8
-19 2 -7 9 -37 18 -68 8 -30 17 -66 19 -80 2 -13 9 -35 14 -49 6 -14 9 -28 6
-32 -2 -5 -1 -8 4 -8 4 0 9 -14 10 -32 1 -17 6 -34 10 -37 5 -3 10 -17 12 -31
1 -14 6 -32 11 -40 4 -8 10 -32 14 -52 4 -21 11 -38 17 -38 6 0 8 -4 4 -10 -3
-5 1 -25 9 -45 8 -19 12 -35 9 -35 -3 0 -1 -6 4 -12 6 -7 13 -25 17 -40 3 -15
11 -40 18 -55 6 -15 13 -37 15 -47 2 -11 8 -25 14 -33 6 -7 8 -13 4 -13 -4 0
-2 -7 5 -15 7 -8 9 -15 5 -15 -4 0 -3 -6 2 -12 6 -7 16 -31 23 -53 7 -22 17
-46 23 -52 5 -7 6 -13 3 -13 -4 0 -1 -10 6 -23 6 -12 13 -31 15 -42 2 -11 8
-21 13 -23 6 -2 10 -15 10 -28 0 -13 5 -24 10 -24 6 0 10 -11 10 -25 0 -14 5
-25 12 -25 6 0 8 -3 5 -6 -4 -4 0 -20 8 -35 8 -16 22 -42 30 -58 8 -15 12 -31
8 -35 -3 -3 -1 -6 5 -6 7 0 12 -9 12 -20 0 -11 5 -20 11 -20 5 0 7 -4 4 -10
-3 -5 -1 -10 5 -10 6 0 9 -4 6 -8 -3 -5 4 -23 15 -41 11 -19 14 -30 7 -26 -7
4 -5 0 4 -7 9 -8 20 -26 23 -41 4 -15 11 -27 17 -27 5 0 6 -4 3 -10 -3 -6 -1
-10 5 -10 6 0 9 -4 5 -9 -3 -5 -1 -12 5 -16 6 -4 8 -11 5 -16 -4 -5 -2 -9 2
-9 10 0 46 -77 46 -97 0 -7 3 -11 6 -8 5 6 13 -8 96 -172 22 -43 48 -86 58
-95 10 -9 17 -18 16 -20 -5 -8 14 -48 23 -48 6 0 8 -3 5 -6 -4 -4 2 -19 13
-34 11 -16 20 -33 20 -39 0 -6 4 -11 9 -11 5 0 14 -14 21 -30 7 -16 16 -30 21
-30 5 0 9 -9 9 -20 0 -10 8 -24 18 -29 9 -6 13 -11 7 -11 -5 0 -5 -4 2 -8 6
-4 13 -14 15 -22 2 -8 15 -27 30 -43 16 -15 28 -30 28 -35 1 -19 12 -42 22
-42 6 0 9 -3 5 -6 -3 -3 7 -19 21 -36 15 -17 26 -34 24 -39 -1 -5 3 -9 9 -9 5
0 8 -4 5 -8 -3 -5 4 -15 15 -22 10 -8 19 -18 19 -23 0 -11 41 -68 64 -89 10
-10 15 -18 11 -18 -5 0 1 -9 12 -20 12 -10 24 -28 28 -40 3 -11 11 -20 16 -20
5 0 9 -6 9 -14 0 -8 7 -16 15 -20 8 -3 15 -11 15 -17 0 -6 11 -22 26 -35 14
-13 21 -24 17 -24 -4 0 1 -7 11 -15 11 -8 16 -15 11 -15 -5 0 1 -7 13 -16 12
-8 22 -20 22 -25 0 -16 27 -39 35 -31 5 4 5 2 2 -4 -4 -6 7 -24 23 -40 16 -16
30 -33 30 -38 0 -5 10 -17 22 -27 11 -11 18 -19 15 -19 -3 0 10 -18 31 -40 45
-48 86 -98 90 -111 2 -5 8 -7 13 -3 5 3 9 1 9 -5 0 -6 13 -24 30 -41 16 -17
30 -35 30 -41 0 -6 4 -7 10 -4 5 3 10 1 10 -5 0 -6 22 -33 49 -60 27 -27 46
-51 43 -54 -3 -3 2 -6 11 -6 8 0 19 -9 22 -20 3 -11 13 -20 21 -20 8 0 12 -4
9 -10 -3 -5 2 -10 11 -10 10 0 15 -3 11 -6 -7 -7 81 -94 96 -94 5 0 8 -3 4 -6
-7 -7 17 -34 31 -34 5 0 12 -9 15 -20 3 -11 12 -20 20 -20 9 0 19 -9 22 -20 3
-11 13 -20 21 -20 8 0 12 -4 9 -10 -3 -5 -1 -10 5 -10 7 0 25 -13 40 -30 15
-16 33 -30 40 -30 6 0 8 -5 5 -10 -3 -6 2 -13 11 -17 10 -3 34 -23 54 -42 61
-59 143 -131 149 -131 4 0 14 -8 23 -17 9 -10 30 -29 48 -43 17 -14 42 -35 56
-48 13 -13 24 -20 24 -16 0 4 8 -3 19 -14 10 -12 22 -22 26 -22 4 0 18 -11 31
-26 13 -14 24 -22 24 -19 0 3 15 -8 33 -24 17 -17 37 -31 42 -31 6 0 17 -9 25
-19 7 -11 17 -18 22 -15 4 3 11 -2 14 -10 3 -9 11 -16 18 -16 6 0 18 -9 26
-20 8 -11 22 -20 32 -20 10 0 18 -7 18 -17 0 -9 3 -14 6 -10 5 5 80 -45 115
-78 9 -8 19 -15 23 -15 13 0 136 -84 136 -93 0 -4 4 -6 9 -3 5 4 23 -5 39 -19
16 -14 34 -25 40 -25 5 0 15 -7 22 -15 7 -9 15 -13 17 -11 3 2 13 -4 24 -15
10 -10 26 -19 34 -19 8 0 15 -4 15 -10 0 -5 7 -10 15 -10 7 0 18 -7 23 -16 5
-9 12 -15 15 -15 18 3 26 -1 47 -19 12 -11 27 -17 31 -14 5 3 9 1 9 -4 0 -5
21 -20 48 -33 26 -13 49 -27 50 -31 2 -5 10 -8 18 -8 8 0 14 -4 14 -10 0 -5 7
-7 15 -4 8 4 15 1 15 -7 0 -7 3 -10 6 -6 4 3 12 1 20 -6 32 -28 49 -42 49 -39
0 6 39 -9 65 -24 14 -9 33 -18 43 -21 9 -3 17 -10 17 -15 0 -5 4 -7 9 -4 4 3
17 -1 27 -9 10 -8 27 -15 37 -15 10 0 15 -4 12 -10 -3 -5 0 -10 7 -10 8 0 31
-9 52 -20 22 -10 43 -17 47 -14 5 3 9 1 9 -5 0 -9 40 -27 49 -22 2 2 7 -1 10
-6 7 -9 75 -48 79 -45 5 5 52 -11 52 -18 0 -4 20 -13 45 -20 26 -7 42 -17 38
-23 -3 -5 -2 -7 4 -4 5 3 22 -1 37 -9 16 -7 33 -14 40 -14 6 0 24 -7 40 -15
16 -9 31 -13 34 -11 2 3 11 -2 19 -10 9 -8 21 -13 29 -10 7 3 14 0 16 -5 2 -5
13 -11 26 -12 12 0 22 -4 22 -8 0 -4 23 -13 50 -20 28 -7 50 -16 50 -19 0 -4
7 -7 15 -8 8 -1 22 -3 30 -4 8 -1 15 -4 15 -8 0 -4 7 -7 15 -8 8 -1 22 -3 30
-4 8 -1 15 -5 15 -10 0 -4 10 -8 23 -8 12 0 31 -7 41 -15 10 -8 22 -12 27 -10
4 3 45 -8 92 -25 47 -16 95 -30 106 -30 12 0 21 -4 21 -8 0 -4 8 -9 18 -10 21
-2 57 -10 57 -12 0 -1 11 -3 24 -6 14 -2 31 -10 40 -17 12 -10 13 -9 6 3 -7
12 -6 13 6 4 14 -11 51 -22 104 -31 17 -3 38 -9 47 -14 9 -5 32 -11 50 -14 18
-2 50 -9 70 -14 20 -5 39 -6 42 -3 4 3 6 1 6 -4 0 -5 12 -11 28 -12 57 -5 67
-7 72 -14 3 -3 23 -9 45 -11 22 -2 47 -7 55 -10 8 -3 35 -8 60 -11 25 -2 52
-7 60 -10 8 -3 33 -8 55 -10 22 -2 40 -5 40 -6 0 -2 9 -4 20 -5 25 -3 110 -16
150 -22 17 -2 53 -5 82 -6 28 -1 49 -5 47 -9 -3 -4 4 -7 13 -7 38 1 135 -10
141 -15 3 -3 11 -1 19 5 8 7 13 8 13 1 0 -5 21 -10 48 -12 71 -3 127 -7 127
-10 0 -7 47 -5 51 2 3 5 11 5 17 0 7 -6 37 -10 67 -11 219 -5 320 -10 329 -15
5 -4 12 -2 16 4 4 6 11 7 17 4 11 -7 52 -7 318 2 231 7 254 9 268 18 7 4 12 2
12 -4 0 -6 5 -8 12 -4 7 5 26 9 43 9 16 1 73 5 125 10 52 5 105 9 118 9 12 1
22 4 22 7 0 3 20 5 45 4 24 -1 43 0 41 4 -4 6 41 11 121 15 18 0 33 3 33 6 0
6 43 11 103 14 15 0 27 3 27 6 0 3 12 7 28 8 24 2 144 24 212 39 14 3 36 7 50
8 14 2 25 4 25 5 0 2 12 5 55 13 49 10 85 19 100 25 8 3 26 7 40 8 44 5 65 9
70 14 7 7 132 41 152 41 10 0 20 5 23 10 4 5 11 7 16 3 5 -3 15 -2 22 3 7 5
21 9 32 9 11 -1 23 3 26 7 3 5 21 11 40 14 19 2 39 9 44 13 6 4 25 10 43 13
18 3 39 10 46 16 7 6 16 8 19 4 4 -3 12 -1 19 5 7 6 18 11 23 12 6 2 15 4 20
5 6 2 23 6 38 9 15 4 26 10 23 15 -3 4 6 7 19 5 14 -1 25 3 25 9 0 5 3 7 7 4
3 -4 12 -2 20 4 10 9 13 8 13 -2 0 -9 3 -10 8 -3 7 10 24 19 47 24 6 1 16 6
23 12 6 6 12 7 12 3 0 -4 7 -2 15 5 9 7 18 10 21 7 4 -3 13 1 21 9 8 8 19 12
24 9 5 -4 9 -1 9 5 0 7 7 10 15 7 8 -4 17 -2 20 4 4 5 11 7 16 4 5 -4 9 -1 9
5 0 7 7 10 15 6 8 -3 15 -2 15 2 0 8 20 17 118 53 34 13 62 27 62 31 0 4 7 5
15 2 8 -4 15 -1 15 5 0 6 3 11 8 10 15 -2 52 14 52 23 0 5 5 6 11 2 6 -3 14
-3 18 2 10 15 62 35 72 29 5 -4 9 -1 9 5 0 11 58 36 73 32 4 -1 7 2 7 6 0 5
34 24 75 42 41 18 72 37 68 43 -3 6 -1 7 5 4 8 -6 107 37 122 53 9 9 85 44 93
42 4 -1 7 2 7 7 0 5 15 14 33 22 17 7 34 16 37 19 5 6 34 22 97 54 13 6 23 15
23 19 0 5 5 5 10 2 6 -3 10 -2 10 3 0 9 50 37 63 34 4 -1 7 3 7 8 0 6 7 10 15
10 8 0 15 4 15 9 0 5 10 13 23 17 12 4 24 10 27 13 10 13 65 45 73 43 4 -1 10
5 13 13 4 8 15 15 25 15 10 0 19 4 19 9 0 5 21 22 48 37 26 15 53 34 60 41 8
7 18 10 24 7 6 -4 8 -3 5 3 -4 6 5 15 18 21 14 7 25 16 25 22 0 5 3 9 8 8 15
-3 42 15 35 25 -3 5 -2 8 3 4 8 -4 48 22 146 95 9 7 27 20 39 28 13 8 33 26
46 39 13 13 23 21 23 17 0 -4 10 2 22 14 12 11 28 20 35 20 8 0 12 3 10 8 -6
9 19 33 27 25 3 -4 6 -1 6 5 0 7 7 12 16 12 8 0 13 4 9 9 -3 5 4 12 15 16 11
3 20 11 20 16 0 6 5 7 10 4 6 -3 10 -1 10 5 0 5 13 18 30 29 16 10 27 20 24
23 -3 4 4 9 15 13 12 3 21 11 21 16 0 5 7 9 15 9 8 0 15 7 15 15 0 8 5 15 12
15 6 0 28 18 50 39 21 22 38 36 38 33 0 -4 12 7 26 23 14 17 29 30 32 30 12 0
52 44 52 58 0 8 4 7 10 -3 7 -11 10 -11 10 -2 0 15 56 72 70 72 6 0 10 7 10
15 0 8 3 14 8 13 4 -2 8 2 10 7 2 6 13 15 25 22 12 6 21 15 20 20 -2 4 0 8 5
8 11 0 172 165 172 176 0 6 5 7 10 4 6 -3 10 1 10 10 0 9 5 13 10 10 6 -3 10
-1 10 5 0 7 11 21 25 32 14 11 22 25 18 31 -3 7 -3 9 2 5 4 -4 24 12 44 34 20
23 44 48 54 57 9 8 17 21 17 29 0 7 5 10 10 7 6 -3 13 1 17 10 3 10 15 27 27
40 12 12 40 43 63 68 23 25 39 48 36 51 -3 3 2 8 11 12 9 3 16 10 16 15 0 4
12 22 28 38 15 17 35 40 44 53 10 13 29 37 43 53 14 17 35 45 46 63 11 17 25
32 30 32 5 0 9 5 9 11 0 7 8 18 18 26 10 9 11 11 2 7 -8 -4 -1 7 17 26 18 18
30 37 27 42 -3 4 3 8 12 8 10 0 15 3 11 6 -3 3 7 20 23 38 17 17 30 36 30 41
0 6 11 23 25 39 13 16 23 32 20 35 -2 4 5 14 16 21 10 8 19 20 19 27 0 7 5 13
10 13 6 0 10 7 10 15 0 9 7 18 15 21 8 4 12 10 9 15 -3 5 0 9 5 9 6 0 11 7 11
15 0 8 5 15 11 15 6 0 9 7 5 15 -3 9 0 15 9 15 8 0 15 7 15 15 0 8 8 23 18 33
19 19 36 52 34 65 -1 4 2 7 6 7 5 0 23 27 42 60 19 33 38 60 42 60 5 0 7 4 4
8 -3 5 2 18 12 28 9 11 18 26 20 34 2 8 7 16 12 18 5 2 14 19 20 38 6 19 16
32 21 28 5 -3 9 -2 8 3 -4 14 13 63 21 63 5 0 14 16 20 35 6 19 19 39 28 45 9
5 13 10 9 10 -5 0 1 15 12 33 11 19 18 37 14 40 -3 4 -1 7 6 7 7 0 9 5 6 10
-3 6 -3 10 2 10 4 0 21 29 38 65 16 36 32 65 35 65 4 0 7 6 7 13 1 24 8 42 21
52 7 6 14 18 15 27 2 9 9 23 16 32 7 9 10 16 7 16 -4 0 2 17 13 38 28 51 61
129 61 141 0 6 5 11 11 11 5 0 8 4 5 8 -3 5 4 25 14 45 11 21 17 37 13 37 -3
0 1 8 10 18 8 9 16 20 17 24 5 40 14 68 23 68 6 0 7 3 4 7 -4 3 0 17 9 31 11
17 12 22 3 17 -8 -5 -6 1 4 12 9 11 17 27 17 36 0 9 5 17 11 17 5 0 8 4 5 9
-3 4 5 36 18 69 13 33 21 63 18 66 -3 3 0 6 6 6 7 0 11 3 10 8 -2 6 15 65 29
102 4 8 5 18 5 23 -1 4 3 7 9 7 5 0 7 4 4 10 -3 6 -3 16 2 23 4 6 8 15 9 20 1
4 2 8 4 10 1 2 6 20 13 50 1 6 6 18 10 25 5 6 6 12 3 12 -3 0 1 15 9 34 8 18
11 37 7 40 -3 4 -1 10 5 14 7 4 14 19 17 32 5 24 9 43 21 90 3 11 7 29 9 40 3
11 8 26 13 33 4 6 6 20 5 30 -2 9 2 17 8 17 6 0 9 4 6 8 -3 5 4 42 14 82 11
41 17 76 15 79 -3 2 2 13 12 23 10 12 12 18 4 18 -7 0 -9 5 -4 13 7 12 11 24
17 62 2 11 6 34 10 50 13 58 17 80 23 110 8 44 11 60 13 60 1 0 12 84 13 108
1 9 5 17 10 17 4 0 6 3 4 8 -3 4 -1 32 4 62 11 67 20 135 24 175 1 17 4 30 5
30 1 0 4 18 6 40 2 22 5 56 8 75 2 19 7 67 10 105 4 39 9 94 12 124 3 30 7 58
10 63 3 4 0 8 -6 8 -6 0 -8 5 -4 12 5 7 10 56 12 108 2 59 8 97 15 102 9 6 9
8 0 8 -14 0 -14 39 0 58 6 7 6 12 0 12 -6 0 -8 25 -6 63 3 34 5 67 4 72 -5
244 -5 305 4 305 6 0 3 5 -5 10 -12 8 -12 10 -1 10 9 0 10 4 4 13 -6 6 -11 48
-12 92 -2 85 -7 158 -11 163 -5 6 -2 70 4 80 4 7 4 12 -1 12 -4 0 -9 19 -10
43 -3 44 -9 103 -16 150 -2 15 0 30 6 34 6 4 5 10 -4 17 -8 6 -15 31 -16 56 0
25 -4 68 -8 95 -5 28 -8 62 -9 78 0 15 -3 27 -6 27 -3 0 -6 12 -7 28 -4 70 -9
102 -15 102 -3 0 -5 8 -4 17 2 10 -1 33 -6 53 -4 19 -10 52 -13 74 -3 21 -10
47 -16 58 -7 13 -7 18 -1 14 6 -3 4 15 -4 41 -8 26 -12 53 -10 60 3 7 0 13 -5
13 -6 0 -9 9 -6 20 3 11 1 20 -3 20 -5 0 -7 8 -6 18 2 9 0 26 -5 37 -16 43
-22 61 -25 85 -1 14 -5 35 -8 47 -3 13 -8 32 -11 44 -2 11 -7 29 -10 39 -6 20
-15 56 -20 80 -1 8 -5 22 -8 30 -9 25 -29 90 -32 108 -2 9 -4 17 -5 17 -1 0
-4 14 -6 30 -3 17 -9 34 -15 40 -5 5 -9 22 -9 37 0 15 -4 28 -8 28 -4 0 -8 10
-9 22 -1 11 -6 24 -10 27 -4 3 -9 17 -11 31 -1 14 -6 34 -11 45 -16 35 -24 59
-28 85 -2 14 -8 29 -14 35 -5 5 -9 17 -9 27 0 10 -4 18 -10 18 -5 0 -7 6 -4
14 3 8 0 17 -5 21 -6 3 -9 11 -6 16 4 5 2 9 -3 9 -5 0 -9 6 -10 13 0 6 -3 19
-5 27 -16 50 -20 60 -29 60 -5 0 -6 5 -3 10 4 6 2 17 -4 24 -6 7 -12 21 -14
32 -2 10 -12 37 -22 59 -10 22 -18 46 -18 53 0 6 -4 12 -8 12 -7 0 -17 23 -20
45 -1 6 -9 26 -20 46 -10 20 -15 39 -12 43 4 3 2 6 -4 6 -10 0 -26 44 -21 56
2 3 -5 10 -14 15 -11 6 -15 16 -11 26 4 11 3 14 -5 9 -8 -5 -12 1 -12 18 0 14
-4 26 -9 26 -8 0 -12 9 -20 45 -1 6 -11 25 -23 43 -11 17 -16 32 -11 32 4 0 3
4 -2 8 -13 9 -81 144 -77 154 1 4 -2 8 -8 8 -5 0 -10 6 -10 14 0 8 -5 16 -11
18 -5 2 -11 10 -13 18 -1 8 -8 26 -16 40 -26 45 -55 98 -83 152 -16 29 -35 60
-43 69 -8 9 -11 19 -7 22 3 4 0 7 -7 7 -7 0 -11 3 -7 6 3 3 -3 15 -14 27 -10
11 -19 27 -19 34 0 7 -5 13 -11 13 -5 0 -7 5 -4 10 3 6 1 10 -4 10 -6 0 -11 7
-11 15 0 7 -6 18 -14 22 -8 4 -14 11 -13 15 3 10 -47 87 -56 88 -5 0 -5 5 -2
10 3 6 1 10 -6 10 -7 0 -10 3 -6 6 5 5 -10 27 -40 59 -7 8 -13 21 -13 30 0 9
-4 13 -10 10 -5 -3 -10 -1 -10 6 0 7 -11 27 -25 44 -13 18 -21 35 -18 39 4 3
-1 6 -10 6 -9 0 -16 3 -15 8 3 15 -15 42 -25 35 -5 -3 -7 -1 -4 4 4 6 -2 21
-13 34 -29 36 -34 41 -53 72 -19 29 -42 59 -64 82 -7 8 -13 18 -13 24 0 6 -4
11 -10 11 -5 0 -10 6 -10 13 0 7 -9 19 -20 27 -11 8 -20 18 -20 22 0 8 -6 15
-57 72 -13 14 -23 32 -23 41 0 9 -4 13 -10 10 -5 -3 -15 5 -22 19 -6 14 -18
26 -25 26 -8 0 -12 4 -9 9 4 5 -7 22 -24 38 -16 15 -30 31 -30 35 0 4 -13 21
-30 36 -16 16 -30 35 -30 41 0 7 -4 10 -8 7 -5 -3 -15 5 -23 16 -8 12 -28 36
-46 55 -17 18 -29 33 -26 33 3 0 -4 9 -17 20 -13 11 -28 20 -34 20 -6 0 -4 5
4 10 9 6 10 10 3 10 -15 0 -72 57 -65 65 3 3 -2 5 -11 5 -10 0 -17 5 -17 10 0
14 -88 99 -95 92 -3 -3 -5 0 -5 7 0 13 -50 67 -50 54 -1 -4 -8 5 -16 20 -8 15
-19 25 -23 23 -4 -3 -14 6 -21 19 -7 14 -16 25 -19 25 -4 0 -39 32 -80 70 -40
39 -77 70 -82 70 -5 0 -9 7 -9 15 0 8 -5 15 -10 15 -6 0 -22 12 -35 26 -14 15
-25 24 -25 20 0 -4 -6 -1 -14 6 -8 7 -12 16 -10 19 2 4 -7 10 -21 13 -14 4
-24 10 -22 14 1 4 0 7 -3 8 -3 0 -23 17 -45 38 -72 66 -85 77 -85 71 0 -3 -13
7 -28 22 -44 43 -70 62 -76 56 -3 -4 -6 1 -6 11 0 9 -5 14 -10 11 -6 -3 -13 1
-16 9 -3 9 -10 16 -16 16 -5 0 -21 12 -36 26 -15 14 -39 32 -54 40 -16 8 -28
19 -28 24 0 6 -7 10 -15 10 -8 0 -15 5 -15 10 0 6 -7 10 -15 10 -8 0 -15 4
-15 8 0 4 -18 19 -40 32 -22 14 -40 29 -40 33 0 5 -4 5 -10 2 -5 -3 -10 1 -10
9 0 9 -4 15 -9 13 -10 -2 -45 19 -72 45 -9 9 -26 19 -38 23 -12 3 -21 11 -21
17 0 6 -3 9 -6 5 -4 -3 -12 -1 -20 6 -33 30 -44 37 -44 30 0 -4 -7 2 -15 13
-8 10 -15 15 -15 10 0 -5 -8 0 -17 10 -10 10 -25 20 -33 22 -8 2 -16 8 -18 13
-2 5 -10 9 -18 9 -8 0 -14 5 -14 10 0 6 -5 10 -11 10 -6 0 -30 13 -53 30 -24
16 -49 30 -57 32 -7 2 -25 13 -39 26 -14 12 -31 20 -37 17 -7 -2 -13 0 -13 6
0 5 -12 15 -27 22 -16 6 -30 14 -33 17 -3 3 -18 12 -35 20 -16 8 -36 21 -43
28 -8 7 -17 10 -22 7 -5 -3 -10 -2 -12 2 -3 8 -34 25 -153 87 -33 17 -63 35
-66 39 -3 5 -8 7 -10 6 -2 -2 -47 17 -99 43 -52 25 -98 45 -101 45 -4 -1 -16
6 -27 16 -12 11 -25 16 -30 13 -5 -3 -15 1 -22 9 -7 8 -16 15 -21 15 -4 0 -20
5 -36 12 -15 6 -30 12 -33 13 -3 1 -31 13 -64 28 -32 15 -62 24 -67 21 -5 -3
-9 -1 -9 5 0 10 -38 27 -52 23 -5 -1 -8 2 -8 8 0 5 -9 10 -19 10 -11 0 -23 5
-26 10 -4 6 -12 10 -18 9 -20 -2 -57 13 -57 23 0 5 -4 7 -10 3 -5 -3 -17 -2
-27 4 -36 18 -78 34 -86 33 -4 -1 -21 5 -37 13 -17 9 -30 12 -30 8 0 -5 -4 -2
-8 4 -5 7 -20 14 -35 15 -15 1 -27 7 -27 12 0 5 -3 7 -6 3 -4 -3 -19 0 -35 9
-16 8 -29 13 -29 10 0 -2 -30 7 -67 20 -38 13 -76 24 -86 24 -10 0 -15 4 -12
10 3 6 -1 7 -10 4 -8 -4 -22 -1 -30 6 -8 7 -15 10 -15 7 0 -4 -18 0 -39 8 -22
7 -42 11 -45 8 -3 -4 -6 -1 -6 5 0 6 -6 9 -14 6 -8 -3 -17 0 -21 5 -3 6 -11 9
-16 6 -5 -4 -15 -3 -21 2 -7 4 -17 8 -23 10 -5 1 -21 5 -35 8 -14 4 -35 8 -48
10 -13 2 -30 9 -39 17 -14 11 -16 11 -8 -2 6 -12 5 -13 -6 -2 -7 6 -25 12 -39
12 -15 0 -30 3 -33 7 -6 5 -48 13 -84 16 -7 0 -13 3 -13 7 0 3 -17 7 -37 8
-21 2 -40 6 -43 10 -3 4 -14 8 -25 9 -25 2 -74 10 -100 16 -18 4 -52 10 -135
24 -14 2 -33 4 -42 4 -10 0 -18 4 -18 8 0 4 -10 7 -22 6 -13 -1 -26 3 -30 9
-6 8 -8 8 -8 0 0 -9 -11 -9 -37 -3 -21 6 -56 12 -78 14 -65 7 -104 13 -113 19
-4 2 -14 1 -22 -4 -8 -5 -19 -5 -25 0 -12 10 -57 16 -200 26 -44 3 -85 10 -91
15 -6 5 -13 6 -17 3 -8 -8 -57 -12 -57 -5 0 7 -16 8 -324 16 -121 3 -222 7
-224 10 -2 2 -14 0 -26 -5 -12 -4 -29 -4 -38 1 -8 5 -18 6 -21 3z"/>
</g>
</svg>
